<svg xmlns="http://www.w3.org/2000/svg" width="1024" height="1024" viewBox="0 0 180 180">
  <defs>
    <clipPath id="a-clip"><rect width="180" height="180" rx="40" ry="40"></rect></clipPath>
  </defs>
  <g clip-path="url(#a-clip)">
    <rect width="180" height="180" fill="#1A0E06"></rect>
    <circle cx="90" cy="90" r="71" fill="none" stroke="#7A4A18" stroke-width="2"></circle>
    <circle cx="90" cy="90" r="66" fill="none" stroke="#7A4A18" stroke-width="0.75" opacity="0.5"></circle>
    <g transform="translate(90,90)">
      <path d="M -11 -20 L 11 -20 L 8 -63 L -8 -63 Z" fill="#AA6C2A" transform="rotate(0)"></path>
      <path d="M -11 -20 L 11 -20 L 8 -63 L -8 -63 Z" fill="#936020" transform="rotate(60)"></path>
      <path d="M -11 -20 L 11 -20 L 8 -63 L -8 -63 Z" fill="#AA6C2A" transform="rotate(120)"></path>
      <path d="M -11 -20 L 11 -20 L 8 -63 L -8 -63 Z" fill="#936020" transform="rotate(180)"></path>
      <path d="M -11 -20 L 11 -20 L 8 -63 L -8 -63 Z" fill="#AA6C2A" transform="rotate(240)"></path>
      <path d="M -11 -20 L 11 -20 L 8 -63 L -8 -63 Z" fill="#936020" transform="rotate(300)"></path>
      <circle r="20" fill="#1A0E06"></circle>
      <circle r="4" cx="7" cy="-9" fill="#C88C42" opacity="0.4"></circle>
    </g>
  </g>
</svg>